# xmcd
#
# Track frame offsets:
#	150
#	14390
#	32712
#	46832
#	64837
#	84710
#	104572
#	132545
#	150127
#	168782
#	188497
#	206685
#	220247
#
# Disc length: 3154 seconds
#
# Revision: 5
# Processed by: cddbd v1.5.2PL0 Copyright (c) Steve Scherf et al.
# Submitted via: EZCDAudioConverter 3.0.3.2
#
DISCID=a90c500d
DTITLE=Bill Perry - Greycourt Lightning
DYEAR=1998
DGENRE=Blues
TTITLE0=Gettin' Down
TTITLE1=In Pain
TTITLE2=About Me  (Why I got the Blues)
TTITLE3=The Other Night
TTITLE4=Your Smile
TTITLE5=Blue Suede Shoes
TTITLE6=Sneaking Around
TTITLE7=Trust in You
TTITLE8=Greycourt Lightning
TTITLE9=Come on in My Kitchen
TTITLE10=My Life
TTITLE11=Evil Woman
TTITLE12=Roll with Me
EXTD=
EXTT0=
EXTT1=
EXTT2=
EXTT3=
EXTT4=
EXTT5=
EXTT6=
EXTT7=
EXTT8=
EXTT9=
EXTT10=
EXTT11=
EXTT12=
PLAYORDER=
